<?xml version="1.0" standalone="no"?>
<svg xmlns="http://www.w3.org/2000/svg" width="500" height="500"><defs><clipPath id="clip-path-dot-color"><circle cx="34" cy="130" r="6" transform="rotate(0,34,130)"/><circle cx="34" cy="214" r="6" transform="rotate(0,34,214)"/><circle cx="34" cy="238" r="6" transform="rotate(0,34,238)"/><circle cx="34" cy="250" r="6" transform="rotate(0,34,250)"/><circle cx="34" cy="286" r="6" transform="rotate(0,34,286)"/><circle cx="34" cy="322" r="6" transform="rotate(0,34,322)"/><circle cx="34" cy="358" r="6" transform="rotate(0,34,358)"/><circle cx="46" cy="142" r="6" transform="rotate(0,46,142)"/><circle cx="46" cy="154" r="6" transform="rotate(0,46,154)"/><circle cx="46" cy="166" r="6" transform="rotate(0,46,166)"/><circle cx="46" cy="178" r="6" transform="rotate(0,46,178)"/><circle cx="46" cy="190" r="6" transform="rotate(0,46,190)"/><circle cx="46" cy="226" r="6" transform="rotate(0,46,226)"/><circle cx="46" cy="238" r="6" transform="rotate(0,46,238)"/><circle cx="46" cy="250" r="6" transform="rotate(0,46,250)"/><circle cx="46" cy="262" r="6" transform="rotate(0,46,262)"/><circle cx="46" cy="274" r="6" transform="rotate(0,46,274)"/><circle cx="46" cy="286" r="6" transform="rotate(0,46,286)"/><circle cx="46" cy="298" r="6" transform="rotate(0,46,298)"/><circle cx="46" cy="310" r="6" transform="rotate(0,46,310)"/><circle cx="46" cy="322" r="6" transform="rotate(0,46,322)"/><circle cx="46" cy="346" r="6" transform="rotate(0,46,346)"/><circle cx="46" cy="358" r="6" transform="rotate(0,46,358)"/><circle cx="46" cy="370" r="6" transform="rotate(0,46,370)"/><circle cx="58" cy="130" r="6" transform="rotate(0,58,130)"/><circle cx="58" cy="142" r="6" transform="rotate(0,58,142)"/><circle cx="58" cy="154" r="6" transform="rotate(0,58,154)"/><circle cx="58" cy="166" r="6" transform="rotate(0,58,166)"/><circle cx="58" cy="178" r="6" transform="rotate(0,58,178)"/><circle cx="58" cy="250" r="6" transform="rotate(0,58,250)"/><circle cx="58" cy="274" r="6" transform="rotate(0,58,274)"/><circle cx="58" cy="298" r="6" transform="rotate(0,58,298)"/><circle cx="58" cy="310" r="6" transform="rotate(0,58,310)"/><circle cx="58" cy="322" r="6" transform="rotate(0,58,322)"/><circle cx="58" cy="358" r="6" transform="rotate(0,58,358)"/><circle cx="70" cy="130" r="6" transform="rotate(0,70,130)"/><circle cx="70" cy="154" r="6" transform="rotate(0,70,154)"/><circle cx="70" cy="178" r="6" transform="rotate(0,70,178)"/><circle cx="70" cy="214" r="6" transform="rotate(0,70,214)"/><circle cx="70" cy="238" r="6" transform="rotate(0,70,238)"/><circle cx="70" cy="250" r="6" transform="rotate(0,70,250)"/><circle cx="70" cy="262" r="6" transform="rotate(0,70,262)"/><circle cx="70" cy="298" r="6" transform="rotate(0,70,298)"/><circle cx="70" cy="310" r="6" transform="rotate(0,70,310)"/><circle cx="70" cy="322" r="6" transform="rotate(0,70,322)"/><circle cx="70" cy="346" r="6" transform="rotate(0,70,346)"/><circle cx="82" cy="154" r="6" transform="rotate(0,82,154)"/><circle cx="82" cy="178" r="6" transform="rotate(0,82,178)"/><circle cx="82" cy="214" r="6" transform="rotate(0,82,214)"/><circle cx="82" cy="226" r="6" transform="rotate(0,82,226)"/><circle cx="82" cy="238" r="6" transform="rotate(0,82,238)"/><circle cx="82" cy="262" r="6" transform="rotate(0,82,262)"/><circle cx="82" cy="274" r="6" transform="rotate(0,82,274)"/><circle cx="82" cy="286" r="6" transform="rotate(0,82,286)"/><circle cx="82" cy="298" r="6" transform="rotate(0,82,298)"/><circle cx="82" cy="310" r="6" transform="rotate(0,82,310)"/><circle cx="82" cy="334" r="6" transform="rotate(0,82,334)"/><circle cx="82" cy="346" r="6" transform="rotate(0,82,346)"/><circle cx="82" cy="358" r="6" transform="rotate(0,82,358)"/><circle cx="94" cy="130" r="6" transform="rotate(0,94,130)"/><circle cx="94" cy="142" r="6" transform="rotate(0,94,142)"/><circle cx="94" cy="154" r="6" transform="rotate(0,94,154)"/><circle cx="94" cy="178" r="6" transform="rotate(0,94,178)"/><circle cx="94" cy="190" r="6" transform="rotate(0,94,190)"/><circle cx="94" cy="214" r="6" transform="rotate(0,94,214)"/><circle cx="94" cy="238" r="6" transform="rotate(0,94,238)"/><circle cx="94" cy="250" r="6" transform="rotate(0,94,250)"/><circle cx="94" cy="286" r="6" transform="rotate(0,94,286)"/><circle cx="94" cy="298" r="6" transform="rotate(0,94,298)"/><circle cx="94" cy="322" r="6" transform="rotate(0,94,322)"/><circle cx="94" cy="334" r="6" transform="rotate(0,94,334)"/><circle cx="94" cy="346" r="6" transform="rotate(0,94,346)"/><circle cx="94" cy="358" r="6" transform="rotate(0,94,358)"/><circle cx="94" cy="370" r="6" transform="rotate(0,94,370)"/><circle cx="106" cy="130" r="6" transform="rotate(0,106,130)"/><circle cx="106" cy="154" r="6" transform="rotate(0,106,154)"/><circle cx="106" cy="178" r="6" transform="rotate(0,106,178)"/><circle cx="106" cy="202" r="6" transform="rotate(0,106,202)"/><circle cx="106" cy="226" r="6" transform="rotate(0,106,226)"/><circle cx="106" cy="250" r="6" transform="rotate(0,106,250)"/><circle cx="106" cy="274" r="6" transform="rotate(0,106,274)"/><circle cx="106" cy="298" r="6" transform="rotate(0,106,298)"/><circle cx="106" cy="322" r="6" transform="rotate(0,106,322)"/><circle cx="106" cy="346" r="6" transform="rotate(0,106,346)"/><circle cx="106" cy="370" r="6" transform="rotate(0,106,370)"/><circle cx="118" cy="130" r="6" transform="rotate(0,118,130)"/><circle cx="118" cy="142" r="6" transform="rotate(0,118,142)"/><circle cx="118" cy="154" r="6" transform="rotate(0,118,154)"/><circle cx="118" cy="190" r="6" transform="rotate(0,118,190)"/><circle cx="118" cy="202" r="6" transform="rotate(0,118,202)"/><circle cx="118" cy="214" r="6" transform="rotate(0,118,214)"/><circle cx="118" cy="274" r="6" transform="rotate(0,118,274)"/><circle cx="118" cy="286" r="6" transform="rotate(0,118,286)"/><circle cx="118" cy="298" r="6" transform="rotate(0,118,298)"/><circle cx="118" cy="310" r="6" transform="rotate(0,118,310)"/><circle cx="118" cy="322" r="6" transform="rotate(0,118,322)"/><circle cx="118" cy="346" r="6" transform="rotate(0,118,346)"/><circle cx="130" cy="46" r="6" transform="rotate(0,130,46)"/><circle cx="130" cy="70" r="6" transform="rotate(0,130,70)"/><circle cx="130" cy="94" r="6" transform="rotate(0,130,94)"/><circle cx="130" cy="106" r="6" transform="rotate(0,130,106)"/><circle cx="130" cy="118" r="6" transform="rotate(0,130,118)"/><circle cx="130" cy="130" r="6" transform="rotate(0,130,130)"/><circle cx="130" cy="142" r="6" transform="rotate(0,130,142)"/><circle cx="130" cy="154" r="6" transform="rotate(0,130,154)"/><circle cx="130" cy="166" r="6" transform="rotate(0,130,166)"/><circle cx="130" cy="178" r="6" transform="rotate(0,130,178)"/><circle cx="130" cy="202" r="6" transform="rotate(0,130,202)"/><circle cx="130" cy="214" r="6" transform="rotate(0,130,214)"/><circle cx="130" cy="238" r="6" transform="rotate(0,130,238)"/><circle cx="130" cy="250" r="6" transform="rotate(0,130,250)"/><circle cx="130" cy="286" r="6" transform="rotate(0,130,286)"/><circle cx="130" cy="322" r="6" transform="rotate(0,130,322)"/><circle cx="130" cy="358" r="6" transform="rotate(0,130,358)"/><circle cx="130" cy="370" r="6" transform="rotate(0,130,370)"/><circle cx="130" cy="382" r="6" transform="rotate(0,130,382)"/><circle cx="130" cy="394" r="6" transform="rotate(0,130,394)"/><circle cx="130" cy="406" r="6" transform="rotate(0,130,406)"/><circle cx="130" cy="430" r="6" transform="rotate(0,130,430)"/><circle cx="130" cy="442" r="6" transform="rotate(0,130,442)"/><circle cx="130" cy="466" r="6" transform="rotate(0,130,466)"/><circle cx="142" cy="94" r="6" transform="rotate(0,142,94)"/><circle cx="142" cy="130" r="6" transform="rotate(0,142,130)"/><circle cx="142" cy="154" r="6" transform="rotate(0,142,154)"/><circle cx="142" cy="166" r="6" transform="rotate(0,142,166)"/><circle cx="142" cy="190" r="6" transform="rotate(0,142,190)"/><circle cx="142" cy="214" r="6" transform="rotate(0,142,214)"/><circle cx="142" cy="238" r="6" transform="rotate(0,142,238)"/><circle cx="142" cy="274" r="6" transform="rotate(0,142,274)"/><circle cx="142" cy="286" r="6" transform="rotate(0,142,286)"/><circle cx="142" cy="322" r="6" transform="rotate(0,142,322)"/><circle cx="142" cy="346" r="6" transform="rotate(0,142,346)"/><circle cx="142" cy="358" r="6" transform="rotate(0,142,358)"/><circle cx="142" cy="370" r="6" transform="rotate(0,142,370)"/><circle cx="142" cy="382" r="6" transform="rotate(0,142,382)"/><circle cx="142" cy="394" r="6" transform="rotate(0,142,394)"/><circle cx="142" cy="430" r="6" transform="rotate(0,142,430)"/><circle cx="142" cy="442" r="6" transform="rotate(0,142,442)"/><circle cx="142" cy="454" r="6" transform="rotate(0,142,454)"/><circle cx="142" cy="466" r="6" transform="rotate(0,142,466)"/><circle cx="154" cy="34" r="6" transform="rotate(0,154,34)"/><circle cx="154" cy="46" r="6" transform="rotate(0,154,46)"/><circle cx="154" cy="94" r="6" transform="rotate(0,154,94)"/><circle cx="154" cy="106" r="6" transform="rotate(0,154,106)"/><circle cx="154" cy="130" r="6" transform="rotate(0,154,130)"/><circle cx="154" cy="142" r="6" transform="rotate(0,154,142)"/><circle cx="154" cy="166" r="6" transform="rotate(0,154,166)"/><circle cx="154" cy="238" r="6" transform="rotate(0,154,238)"/><circle cx="154" cy="250" r="6" transform="rotate(0,154,250)"/><circle cx="154" cy="262" r="6" transform="rotate(0,154,262)"/><circle cx="154" cy="274" r="6" transform="rotate(0,154,274)"/><circle cx="154" cy="286" r="6" transform="rotate(0,154,286)"/><circle cx="154" cy="358" r="6" transform="rotate(0,154,358)"/><circle cx="154" cy="394" r="6" transform="rotate(0,154,394)"/><circle cx="154" cy="418" r="6" transform="rotate(0,154,418)"/><circle cx="154" cy="430" r="6" transform="rotate(0,154,430)"/><circle cx="154" cy="454" r="6" transform="rotate(0,154,454)"/><circle cx="154" cy="466" r="6" transform="rotate(0,154,466)"/><circle cx="166" cy="46" r="6" transform="rotate(0,166,46)"/><circle cx="166" cy="82" r="6" transform="rotate(0,166,82)"/><circle cx="166" cy="142" r="6" transform="rotate(0,166,142)"/><circle cx="166" cy="190" r="6" transform="rotate(0,166,190)"/><circle cx="166" cy="202" r="6" transform="rotate(0,166,202)"/><circle cx="166" cy="262" r="6" transform="rotate(0,166,262)"/><circle cx="166" cy="286" r="6" transform="rotate(0,166,286)"/><circle cx="166" cy="298" r="6" transform="rotate(0,166,298)"/><circle cx="166" cy="310" r="6" transform="rotate(0,166,310)"/><circle cx="166" cy="322" r="6" transform="rotate(0,166,322)"/><circle cx="166" cy="334" r="6" transform="rotate(0,166,334)"/><circle cx="166" cy="370" r="6" transform="rotate(0,166,370)"/><circle cx="166" cy="454" r="6" transform="rotate(0,166,454)"/><circle cx="178" cy="34" r="6" transform="rotate(0,178,34)"/><circle cx="178" cy="58" r="6" transform="rotate(0,178,58)"/><circle cx="178" cy="82" r="6" transform="rotate(0,178,82)"/><circle cx="178" cy="94" r="6" transform="rotate(0,178,94)"/><circle cx="178" cy="106" r="6" transform="rotate(0,178,106)"/><circle cx="178" cy="118" r="6" transform="rotate(0,178,118)"/><circle cx="178" cy="130" r="6" transform="rotate(0,178,130)"/><circle cx="178" cy="154" r="6" transform="rotate(0,178,154)"/><circle cx="178" cy="178" r="6" transform="rotate(0,178,178)"/><circle cx="178" cy="214" r="6" transform="rotate(0,178,214)"/><circle cx="178" cy="226" r="6" transform="rotate(0,178,226)"/><circle cx="178" cy="250" r="6" transform="rotate(0,178,250)"/><circle cx="178" cy="274" r="6" transform="rotate(0,178,274)"/><circle cx="178" cy="286" r="6" transform="rotate(0,178,286)"/><circle cx="178" cy="322" r="6" transform="rotate(0,178,322)"/><circle cx="178" cy="334" r="6" transform="rotate(0,178,334)"/><circle cx="178" cy="358" r="6" transform="rotate(0,178,358)"/><circle cx="178" cy="382" r="6" transform="rotate(0,178,382)"/><circle cx="178" cy="394" r="6" transform="rotate(0,178,394)"/><circle cx="178" cy="406" r="6" transform="rotate(0,178,406)"/><circle cx="178" cy="466" r="6" transform="rotate(0,178,466)"/><circle cx="190" cy="46" r="6" transform="rotate(0,190,46)"/><circle cx="190" cy="82" r="6" transform="rotate(0,190,82)"/><circle cx="190" cy="94" r="6" transform="rotate(0,190,94)"/><circle cx="190" cy="130" r="6" transform="rotate(0,190,130)"/><circle cx="190" cy="142" r="6" transform="rotate(0,190,142)"/><circle cx="190" cy="166" r="6" transform="rotate(0,190,166)"/><circle cx="190" cy="178" r="6" transform="rotate(0,190,178)"/><circle cx="190" cy="202" r="6" transform="rotate(0,190,202)"/><circle cx="190" cy="226" r="6" transform="rotate(0,190,226)"/><circle cx="190" cy="250" r="6" transform="rotate(0,190,250)"/><circle cx="190" cy="322" r="6" transform="rotate(0,190,322)"/><circle cx="190" cy="394" r="6" transform="rotate(0,190,394)"/><circle cx="190" cy="406" r="6" transform="rotate(0,190,406)"/><circle cx="190" cy="430" r="6" transform="rotate(0,190,430)"/><circle cx="190" cy="454" r="6" transform="rotate(0,190,454)"/><circle cx="190" cy="466" r="6" transform="rotate(0,190,466)"/><circle cx="202" cy="46" r="6" transform="rotate(0,202,46)"/><circle cx="202" cy="58" r="6" transform="rotate(0,202,58)"/><circle cx="202" cy="70" r="6" transform="rotate(0,202,70)"/><circle cx="202" cy="94" r="6" transform="rotate(0,202,94)"/><circle cx="202" cy="106" r="6" transform="rotate(0,202,106)"/><circle cx="202" cy="130" r="6" transform="rotate(0,202,130)"/><circle cx="202" cy="142" r="6" transform="rotate(0,202,142)"/><circle cx="202" cy="154" r="6" transform="rotate(0,202,154)"/><circle cx="202" cy="178" r="6" transform="rotate(0,202,178)"/><circle cx="202" cy="190" r="6" transform="rotate(0,202,190)"/><circle cx="202" cy="214" r="6" transform="rotate(0,202,214)"/><circle cx="202" cy="250" r="6" transform="rotate(0,202,250)"/><circle cx="202" cy="274" r="6" transform="rotate(0,202,274)"/><circle cx="202" cy="286" r="6" transform="rotate(0,202,286)"/><circle cx="202" cy="310" r="6" transform="rotate(0,202,310)"/><circle cx="202" cy="322" r="6" transform="rotate(0,202,322)"/><circle cx="202" cy="334" r="6" transform="rotate(0,202,334)"/><circle cx="202" cy="406" r="6" transform="rotate(0,202,406)"/><circle cx="202" cy="418" r="6" transform="rotate(0,202,418)"/><circle cx="202" cy="442" r="6" transform="rotate(0,202,442)"/><circle cx="202" cy="466" r="6" transform="rotate(0,202,466)"/><circle cx="214" cy="46" r="6" transform="rotate(0,214,46)"/><circle cx="214" cy="58" r="6" transform="rotate(0,214,58)"/><circle cx="214" cy="70" r="6" transform="rotate(0,214,70)"/><circle cx="214" cy="154" r="6" transform="rotate(0,214,154)"/><circle cx="214" cy="166" r="6" transform="rotate(0,214,166)"/><circle cx="214" cy="178" r="6" transform="rotate(0,214,178)"/><circle cx="214" cy="190" r="6" transform="rotate(0,214,190)"/><circle cx="214" cy="202" r="6" transform="rotate(0,214,202)"/><circle cx="214" cy="238" r="6" transform="rotate(0,214,238)"/><circle cx="214" cy="274" r="6" transform="rotate(0,214,274)"/><circle cx="214" cy="310" r="6" transform="rotate(0,214,310)"/><circle cx="214" cy="322" r="6" transform="rotate(0,214,322)"/><circle cx="214" cy="334" r="6" transform="rotate(0,214,334)"/><circle cx="214" cy="346" r="6" transform="rotate(0,214,346)"/><circle cx="214" cy="358" r="6" transform="rotate(0,214,358)"/><circle cx="214" cy="394" r="6" transform="rotate(0,214,394)"/><circle cx="214" cy="406" r="6" transform="rotate(0,214,406)"/><circle cx="214" cy="454" r="6" transform="rotate(0,214,454)"/><circle cx="214" cy="466" r="6" transform="rotate(0,214,466)"/><circle cx="226" cy="34" r="6" transform="rotate(0,226,34)"/><circle cx="226" cy="70" r="6" transform="rotate(0,226,70)"/><circle cx="226" cy="82" r="6" transform="rotate(0,226,82)"/><circle cx="226" cy="94" r="6" transform="rotate(0,226,94)"/><circle cx="226" cy="106" r="6" transform="rotate(0,226,106)"/><circle cx="226" cy="118" r="6" transform="rotate(0,226,118)"/><circle cx="226" cy="130" r="6" transform="rotate(0,226,130)"/><circle cx="226" cy="166" r="6" transform="rotate(0,226,166)"/><circle cx="226" cy="202" r="6" transform="rotate(0,226,202)"/><circle cx="226" cy="214" r="6" transform="rotate(0,226,214)"/><circle cx="226" cy="238" r="6" transform="rotate(0,226,238)"/><circle cx="226" cy="274" r="6" transform="rotate(0,226,274)"/><circle cx="226" cy="298" r="6" transform="rotate(0,226,298)"/><circle cx="226" cy="322" r="6" transform="rotate(0,226,322)"/><circle cx="226" cy="382" r="6" transform="rotate(0,226,382)"/><circle cx="226" cy="394" r="6" transform="rotate(0,226,394)"/><circle cx="226" cy="406" r="6" transform="rotate(0,226,406)"/><circle cx="226" cy="430" r="6" transform="rotate(0,226,430)"/><circle cx="226" cy="442" r="6" transform="rotate(0,226,442)"/><circle cx="226" cy="454" r="6" transform="rotate(0,226,454)"/><circle cx="238" cy="34" r="6" transform="rotate(0,238,34)"/><circle cx="238" cy="70" r="6" transform="rotate(0,238,70)"/><circle cx="238" cy="82" r="6" transform="rotate(0,238,82)"/><circle cx="238" cy="130" r="6" transform="rotate(0,238,130)"/><circle cx="238" cy="142" r="6" transform="rotate(0,238,142)"/><circle cx="238" cy="166" r="6" transform="rotate(0,238,166)"/><circle cx="238" cy="190" r="6" transform="rotate(0,238,190)"/><circle cx="238" cy="202" r="6" transform="rotate(0,238,202)"/><circle cx="238" cy="214" r="6" transform="rotate(0,238,214)"/><circle cx="238" cy="226" r="6" transform="rotate(0,238,226)"/><circle cx="238" cy="238" r="6" transform="rotate(0,238,238)"/><circle cx="238" cy="262" r="6" transform="rotate(0,238,262)"/><circle cx="238" cy="286" r="6" transform="rotate(0,238,286)"/><circle cx="238" cy="322" r="6" transform="rotate(0,238,322)"/><circle cx="238" cy="346" r="6" transform="rotate(0,238,346)"/><circle cx="238" cy="370" r="6" transform="rotate(0,238,370)"/><circle cx="238" cy="382" r="6" transform="rotate(0,238,382)"/><circle cx="238" cy="406" r="6" transform="rotate(0,238,406)"/><circle cx="238" cy="418" r="6" transform="rotate(0,238,418)"/><circle cx="238" cy="430" r="6" transform="rotate(0,238,430)"/><circle cx="238" cy="466" r="6" transform="rotate(0,238,466)"/><circle cx="250" cy="34" r="6" transform="rotate(0,250,34)"/><circle cx="250" cy="46" r="6" transform="rotate(0,250,46)"/><circle cx="250" cy="58" r="6" transform="rotate(0,250,58)"/><circle cx="250" cy="70" r="6" transform="rotate(0,250,70)"/><circle cx="250" cy="82" r="6" transform="rotate(0,250,82)"/><circle cx="250" cy="94" r="6" transform="rotate(0,250,94)"/><circle cx="250" cy="106" r="6" transform="rotate(0,250,106)"/><circle cx="250" cy="118" r="6" transform="rotate(0,250,118)"/><circle cx="250" cy="130" r="6" transform="rotate(0,250,130)"/><circle cx="250" cy="166" r="6" transform="rotate(0,250,166)"/><circle cx="250" cy="190" r="6" transform="rotate(0,250,190)"/><circle cx="250" cy="202" r="6" transform="rotate(0,250,202)"/><circle cx="250" cy="214" r="6" transform="rotate(0,250,214)"/><circle cx="250" cy="226" r="6" transform="rotate(0,250,226)"/><circle cx="250" cy="238" r="6" transform="rotate(0,250,238)"/><circle cx="250" cy="262" r="6" transform="rotate(0,250,262)"/><circle cx="250" cy="274" r="6" transform="rotate(0,250,274)"/><circle cx="250" cy="310" r="6" transform="rotate(0,250,310)"/><circle cx="250" cy="322" r="6" transform="rotate(0,250,322)"/><circle cx="250" cy="346" r="6" transform="rotate(0,250,346)"/><circle cx="250" cy="394" r="6" transform="rotate(0,250,394)"/><circle cx="250" cy="406" r="6" transform="rotate(0,250,406)"/><circle cx="250" cy="418" r="6" transform="rotate(0,250,418)"/><circle cx="250" cy="430" r="6" transform="rotate(0,250,430)"/><circle cx="250" cy="454" r="6" transform="rotate(0,250,454)"/><circle cx="250" cy="466" r="6" transform="rotate(0,250,466)"/><circle cx="262" cy="46" r="6" transform="rotate(0,262,46)"/><circle cx="262" cy="94" r="6" transform="rotate(0,262,94)"/><circle cx="262" cy="118" r="6" transform="rotate(0,262,118)"/><circle cx="262" cy="130" r="6" transform="rotate(0,262,130)"/><circle cx="262" cy="142" r="6" transform="rotate(0,262,142)"/><circle cx="262" cy="166" r="6" transform="rotate(0,262,166)"/><circle cx="262" cy="202" r="6" transform="rotate(0,262,202)"/><circle cx="262" cy="214" r="6" transform="rotate(0,262,214)"/><circle cx="262" cy="226" r="6" transform="rotate(0,262,226)"/><circle cx="262" cy="250" r="6" transform="rotate(0,262,250)"/><circle cx="262" cy="274" r="6" transform="rotate(0,262,274)"/><circle cx="262" cy="286" r="6" transform="rotate(0,262,286)"/><circle cx="262" cy="322" r="6" transform="rotate(0,262,322)"/><circle cx="262" cy="346" r="6" transform="rotate(0,262,346)"/><circle cx="262" cy="358" r="6" transform="rotate(0,262,358)"/><circle cx="262" cy="382" r="6" transform="rotate(0,262,382)"/><circle cx="262" cy="394" r="6" transform="rotate(0,262,394)"/><circle cx="262" cy="406" r="6" transform="rotate(0,262,406)"/><circle cx="262" cy="418" r="6" transform="rotate(0,262,418)"/><circle cx="262" cy="442" r="6" transform="rotate(0,262,442)"/><circle cx="262" cy="466" r="6" transform="rotate(0,262,466)"/><circle cx="274" cy="46" r="6" transform="rotate(0,274,46)"/><circle cx="274" cy="70" r="6" transform="rotate(0,274,70)"/><circle cx="274" cy="82" r="6" transform="rotate(0,274,82)"/><circle cx="274" cy="94" r="6" transform="rotate(0,274,94)"/><circle cx="274" cy="106" r="6" transform="rotate(0,274,106)"/><circle cx="274" cy="118" r="6" transform="rotate(0,274,118)"/><circle cx="274" cy="130" r="6" transform="rotate(0,274,130)"/><circle cx="274" cy="190" r="6" transform="rotate(0,274,190)"/><circle cx="274" cy="214" r="6" transform="rotate(0,274,214)"/><circle cx="274" cy="238" r="6" transform="rotate(0,274,238)"/><circle cx="274" cy="250" r="6" transform="rotate(0,274,250)"/><circle cx="274" cy="286" r="6" transform="rotate(0,274,286)"/><circle cx="274" cy="322" r="6" transform="rotate(0,274,322)"/><circle cx="274" cy="334" r="6" transform="rotate(0,274,334)"/><circle cx="274" cy="346" r="6" transform="rotate(0,274,346)"/><circle cx="274" cy="370" r="6" transform="rotate(0,274,370)"/><circle cx="274" cy="394" r="6" transform="rotate(0,274,394)"/><circle cx="274" cy="406" r="6" transform="rotate(0,274,406)"/><circle cx="274" cy="418" r="6" transform="rotate(0,274,418)"/><circle cx="274" cy="454" r="6" transform="rotate(0,274,454)"/><circle cx="274" cy="466" r="6" transform="rotate(0,274,466)"/><circle cx="286" cy="34" r="6" transform="rotate(0,286,34)"/><circle cx="286" cy="46" r="6" transform="rotate(0,286,46)"/><circle cx="286" cy="58" r="6" transform="rotate(0,286,58)"/><circle cx="286" cy="70" r="6" transform="rotate(0,286,70)"/><circle cx="286" cy="94" r="6" transform="rotate(0,286,94)"/><circle cx="286" cy="130" r="6" transform="rotate(0,286,130)"/><circle cx="286" cy="166" r="6" transform="rotate(0,286,166)"/><circle cx="286" cy="178" r="6" transform="rotate(0,286,178)"/><circle cx="286" cy="202" r="6" transform="rotate(0,286,202)"/><circle cx="286" cy="262" r="6" transform="rotate(0,286,262)"/><circle cx="286" cy="274" r="6" transform="rotate(0,286,274)"/><circle cx="286" cy="346" r="6" transform="rotate(0,286,346)"/><circle cx="286" cy="382" r="6" transform="rotate(0,286,382)"/><circle cx="286" cy="394" r="6" transform="rotate(0,286,394)"/><circle cx="286" cy="442" r="6" transform="rotate(0,286,442)"/><circle cx="286" cy="454" r="6" transform="rotate(0,286,454)"/><circle cx="286" cy="466" r="6" transform="rotate(0,286,466)"/><circle cx="298" cy="34" r="6" transform="rotate(0,298,34)"/><circle cx="298" cy="58" r="6" transform="rotate(0,298,58)"/><circle cx="298" cy="70" r="6" transform="rotate(0,298,70)"/><circle cx="298" cy="94" r="6" transform="rotate(0,298,94)"/><circle cx="298" cy="106" r="6" transform="rotate(0,298,106)"/><circle cx="298" cy="118" r="6" transform="rotate(0,298,118)"/><circle cx="298" cy="130" r="6" transform="rotate(0,298,130)"/><circle cx="298" cy="142" r="6" transform="rotate(0,298,142)"/><circle cx="298" cy="154" r="6" transform="rotate(0,298,154)"/><circle cx="298" cy="178" r="6" transform="rotate(0,298,178)"/><circle cx="298" cy="202" r="6" transform="rotate(0,298,202)"/><circle cx="298" cy="214" r="6" transform="rotate(0,298,214)"/><circle cx="298" cy="286" r="6" transform="rotate(0,298,286)"/><circle cx="298" cy="298" r="6" transform="rotate(0,298,298)"/><circle cx="298" cy="394" r="6" transform="rotate(0,298,394)"/><circle cx="298" cy="406" r="6" transform="rotate(0,298,406)"/><circle cx="298" cy="418" r="6" transform="rotate(0,298,418)"/><circle cx="298" cy="454" r="6" transform="rotate(0,298,454)"/><circle cx="298" cy="466" r="6" transform="rotate(0,298,466)"/><circle cx="310" cy="34" r="6" transform="rotate(0,310,34)"/><circle cx="310" cy="58" r="6" transform="rotate(0,310,58)"/><circle cx="310" cy="94" r="6" transform="rotate(0,310,94)"/><circle cx="310" cy="118" r="6" transform="rotate(0,310,118)"/><circle cx="310" cy="130" r="6" transform="rotate(0,310,130)"/><circle cx="310" cy="142" r="6" transform="rotate(0,310,142)"/><circle cx="310" cy="214" r="6" transform="rotate(0,310,214)"/><circle cx="310" cy="226" r="6" transform="rotate(0,310,226)"/><circle cx="310" cy="286" r="6" transform="rotate(0,310,286)"/><circle cx="310" cy="298" r="6" transform="rotate(0,310,298)"/><circle cx="310" cy="322" r="6" transform="rotate(0,310,322)"/><circle cx="310" cy="346" r="6" transform="rotate(0,310,346)"/><circle cx="310" cy="382" r="6" transform="rotate(0,310,382)"/><circle cx="310" cy="394" r="6" transform="rotate(0,310,394)"/><circle cx="310" cy="418" r="6" transform="rotate(0,310,418)"/><circle cx="310" cy="430" r="6" transform="rotate(0,310,430)"/><circle cx="322" cy="34" r="6" transform="rotate(0,322,34)"/><circle cx="322" cy="58" r="6" transform="rotate(0,322,58)"/><circle cx="322" cy="70" r="6" transform="rotate(0,322,70)"/><circle cx="322" cy="106" r="6" transform="rotate(0,322,106)"/><circle cx="322" cy="142" r="6" transform="rotate(0,322,142)"/><circle cx="322" cy="154" r="6" transform="rotate(0,322,154)"/><circle cx="322" cy="166" r="6" transform="rotate(0,322,166)"/><circle cx="322" cy="178" r="6" transform="rotate(0,322,178)"/><circle cx="322" cy="190" r="6" transform="rotate(0,322,190)"/><circle cx="322" cy="202" r="6" transform="rotate(0,322,202)"/><circle cx="322" cy="214" r="6" transform="rotate(0,322,214)"/><circle cx="322" cy="250" r="6" transform="rotate(0,322,250)"/><circle cx="322" cy="274" r="6" transform="rotate(0,322,274)"/><circle cx="322" cy="286" r="6" transform="rotate(0,322,286)"/><circle cx="322" cy="322" r="6" transform="rotate(0,322,322)"/><circle cx="322" cy="358" r="6" transform="rotate(0,322,358)"/><circle cx="322" cy="370" r="6" transform="rotate(0,322,370)"/><circle cx="322" cy="382" r="6" transform="rotate(0,322,382)"/><circle cx="322" cy="394" r="6" transform="rotate(0,322,394)"/><circle cx="322" cy="454" r="6" transform="rotate(0,322,454)"/><circle cx="322" cy="466" r="6" transform="rotate(0,322,466)"/><circle cx="334" cy="46" r="6" transform="rotate(0,334,46)"/><circle cx="334" cy="70" r="6" transform="rotate(0,334,70)"/><circle cx="334" cy="94" r="6" transform="rotate(0,334,94)"/><circle cx="334" cy="130" r="6" transform="rotate(0,334,130)"/><circle cx="334" cy="142" r="6" transform="rotate(0,334,142)"/><circle cx="334" cy="154" r="6" transform="rotate(0,334,154)"/><circle cx="334" cy="226" r="6" transform="rotate(0,334,226)"/><circle cx="334" cy="274" r="6" transform="rotate(0,334,274)"/><circle cx="334" cy="286" r="6" transform="rotate(0,334,286)"/><circle cx="334" cy="298" r="6" transform="rotate(0,334,298)"/><circle cx="334" cy="322" r="6" transform="rotate(0,334,322)"/><circle cx="334" cy="358" r="6" transform="rotate(0,334,358)"/><circle cx="334" cy="370" r="6" transform="rotate(0,334,370)"/><circle cx="334" cy="394" r="6" transform="rotate(0,334,394)"/><circle cx="334" cy="406" r="6" transform="rotate(0,334,406)"/><circle cx="334" cy="454" r="6" transform="rotate(0,334,454)"/><circle cx="334" cy="466" r="6" transform="rotate(0,334,466)"/><circle cx="346" cy="34" r="6" transform="rotate(0,346,34)"/><circle cx="346" cy="82" r="6" transform="rotate(0,346,82)"/><circle cx="346" cy="106" r="6" transform="rotate(0,346,106)"/><circle cx="346" cy="118" r="6" transform="rotate(0,346,118)"/><circle cx="346" cy="130" r="6" transform="rotate(0,346,130)"/><circle cx="346" cy="142" r="6" transform="rotate(0,346,142)"/><circle cx="346" cy="154" r="6" transform="rotate(0,346,154)"/><circle cx="346" cy="214" r="6" transform="rotate(0,346,214)"/><circle cx="346" cy="238" r="6" transform="rotate(0,346,238)"/><circle cx="346" cy="250" r="6" transform="rotate(0,346,250)"/><circle cx="346" cy="274" r="6" transform="rotate(0,346,274)"/><circle cx="346" cy="310" r="6" transform="rotate(0,346,310)"/><circle cx="346" cy="334" r="6" transform="rotate(0,346,334)"/><circle cx="346" cy="346" r="6" transform="rotate(0,346,346)"/><circle cx="346" cy="370" r="6" transform="rotate(0,346,370)"/><circle cx="346" cy="382" r="6" transform="rotate(0,346,382)"/><circle cx="346" cy="394" r="6" transform="rotate(0,346,394)"/><circle cx="346" cy="406" r="6" transform="rotate(0,346,406)"/><circle cx="346" cy="430" r="6" transform="rotate(0,346,430)"/><circle cx="346" cy="466" r="6" transform="rotate(0,346,466)"/><circle cx="358" cy="46" r="6" transform="rotate(0,358,46)"/><circle cx="358" cy="58" r="6" transform="rotate(0,358,58)"/><circle cx="358" cy="70" r="6" transform="rotate(0,358,70)"/><circle cx="358" cy="82" r="6" transform="rotate(0,358,82)"/><circle cx="358" cy="118" r="6" transform="rotate(0,358,118)"/><circle cx="358" cy="130" r="6" transform="rotate(0,358,130)"/><circle cx="358" cy="166" r="6" transform="rotate(0,358,166)"/><circle cx="358" cy="178" r="6" transform="rotate(0,358,178)"/><circle cx="358" cy="190" r="6" transform="rotate(0,358,190)"/><circle cx="358" cy="214" r="6" transform="rotate(0,358,214)"/><circle cx="358" cy="250" r="6" transform="rotate(0,358,250)"/><circle cx="358" cy="262" r="6" transform="rotate(0,358,262)"/><circle cx="358" cy="274" r="6" transform="rotate(0,358,274)"/><circle cx="358" cy="286" r="6" transform="rotate(0,358,286)"/><circle cx="358" cy="310" r="6" transform="rotate(0,358,310)"/><circle cx="358" cy="334" r="6" transform="rotate(0,358,334)"/><circle cx="358" cy="346" r="6" transform="rotate(0,358,346)"/><circle cx="358" cy="358" r="6" transform="rotate(0,358,358)"/><circle cx="358" cy="394" r="6" transform="rotate(0,358,394)"/><circle cx="358" cy="418" r="6" transform="rotate(0,358,418)"/><circle cx="358" cy="430" r="6" transform="rotate(0,358,430)"/><circle cx="358" cy="454" r="6" transform="rotate(0,358,454)"/><circle cx="358" cy="466" r="6" transform="rotate(0,358,466)"/><circle cx="370" cy="34" r="6" transform="rotate(0,370,34)"/><circle cx="370" cy="46" r="6" transform="rotate(0,370,46)"/><circle cx="370" cy="70" r="6" transform="rotate(0,370,70)"/><circle cx="370" cy="106" r="6" transform="rotate(0,370,106)"/><circle cx="370" cy="166" r="6" transform="rotate(0,370,166)"/><circle cx="370" cy="202" r="6" transform="rotate(0,370,202)"/><circle cx="370" cy="214" r="6" transform="rotate(0,370,214)"/><circle cx="370" cy="226" r="6" transform="rotate(0,370,226)"/><circle cx="370" cy="262" r="6" transform="rotate(0,370,262)"/><circle cx="370" cy="286" r="6" transform="rotate(0,370,286)"/><circle cx="370" cy="298" r="6" transform="rotate(0,370,298)"/><circle cx="370" cy="310" r="6" transform="rotate(0,370,310)"/><circle cx="370" cy="370" r="6" transform="rotate(0,370,370)"/><circle cx="370" cy="382" r="6" transform="rotate(0,370,382)"/><circle cx="370" cy="394" r="6" transform="rotate(0,370,394)"/><circle cx="370" cy="406" r="6" transform="rotate(0,370,406)"/><circle cx="370" cy="418" r="6" transform="rotate(0,370,418)"/><circle cx="370" cy="442" r="6" transform="rotate(0,370,442)"/><circle cx="370" cy="466" r="6" transform="rotate(0,370,466)"/><circle cx="382" cy="130" r="6" transform="rotate(0,382,130)"/><circle cx="382" cy="142" r="6" transform="rotate(0,382,142)"/><circle cx="382" cy="154" r="6" transform="rotate(0,382,154)"/><circle cx="382" cy="178" r="6" transform="rotate(0,382,178)"/><circle cx="382" cy="190" r="6" transform="rotate(0,382,190)"/><circle cx="382" cy="226" r="6" transform="rotate(0,382,226)"/><circle cx="382" cy="238" r="6" transform="rotate(0,382,238)"/><circle cx="382" cy="250" r="6" transform="rotate(0,382,250)"/><circle cx="382" cy="286" r="6" transform="rotate(0,382,286)"/><circle cx="382" cy="298" r="6" transform="rotate(0,382,298)"/><circle cx="382" cy="310" r="6" transform="rotate(0,382,310)"/><circle cx="382" cy="322" r="6" transform="rotate(0,382,322)"/><circle cx="382" cy="334" r="6" transform="rotate(0,382,334)"/><circle cx="382" cy="346" r="6" transform="rotate(0,382,346)"/><circle cx="382" cy="358" r="6" transform="rotate(0,382,358)"/><circle cx="382" cy="370" r="6" transform="rotate(0,382,370)"/><circle cx="382" cy="418" r="6" transform="rotate(0,382,418)"/><circle cx="382" cy="466" r="6" transform="rotate(0,382,466)"/><circle cx="394" cy="130" r="6" transform="rotate(0,394,130)"/><circle cx="394" cy="142" r="6" transform="rotate(0,394,142)"/><circle cx="394" cy="166" r="6" transform="rotate(0,394,166)"/><circle cx="394" cy="202" r="6" transform="rotate(0,394,202)"/><circle cx="394" cy="214" r="6" transform="rotate(0,394,214)"/><circle cx="394" cy="250" r="6" transform="rotate(0,394,250)"/><circle cx="394" cy="262" r="6" transform="rotate(0,394,262)"/><circle cx="394" cy="274" r="6" transform="rotate(0,394,274)"/><circle cx="394" cy="298" r="6" transform="rotate(0,394,298)"/><circle cx="394" cy="358" r="6" transform="rotate(0,394,358)"/><circle cx="394" cy="370" r="6" transform="rotate(0,394,370)"/><circle cx="394" cy="394" r="6" transform="rotate(0,394,394)"/><circle cx="394" cy="418" r="6" transform="rotate(0,394,418)"/><circle cx="394" cy="442" r="6" transform="rotate(0,394,442)"/><circle cx="394" cy="466" r="6" transform="rotate(0,394,466)"/><circle cx="406" cy="130" r="6" transform="rotate(0,406,130)"/><circle cx="406" cy="142" r="6" transform="rotate(0,406,142)"/><circle cx="406" cy="154" r="6" transform="rotate(0,406,154)"/><circle cx="406" cy="166" r="6" transform="rotate(0,406,166)"/><circle cx="406" cy="178" r="6" transform="rotate(0,406,178)"/><circle cx="406" cy="190" r="6" transform="rotate(0,406,190)"/><circle cx="406" cy="238" r="6" transform="rotate(0,406,238)"/><circle cx="406" cy="250" r="6" transform="rotate(0,406,250)"/><circle cx="406" cy="262" r="6" transform="rotate(0,406,262)"/><circle cx="406" cy="286" r="6" transform="rotate(0,406,286)"/><circle cx="406" cy="310" r="6" transform="rotate(0,406,310)"/><circle cx="406" cy="346" r="6" transform="rotate(0,406,346)"/><circle cx="406" cy="370" r="6" transform="rotate(0,406,370)"/><circle cx="406" cy="418" r="6" transform="rotate(0,406,418)"/><circle cx="406" cy="442" r="6" transform="rotate(0,406,442)"/><circle cx="406" cy="454" r="6" transform="rotate(0,406,454)"/><circle cx="406" cy="466" r="6" transform="rotate(0,406,466)"/><circle cx="418" cy="154" r="6" transform="rotate(0,418,154)"/><circle cx="418" cy="178" r="6" transform="rotate(0,418,178)"/><circle cx="418" cy="190" r="6" transform="rotate(0,418,190)"/><circle cx="418" cy="202" r="6" transform="rotate(0,418,202)"/><circle cx="418" cy="238" r="6" transform="rotate(0,418,238)"/><circle cx="418" cy="250" r="6" transform="rotate(0,418,250)"/><circle cx="418" cy="262" r="6" transform="rotate(0,418,262)"/><circle cx="418" cy="298" r="6" transform="rotate(0,418,298)"/><circle cx="418" cy="334" r="6" transform="rotate(0,418,334)"/><circle cx="418" cy="346" r="6" transform="rotate(0,418,346)"/><circle cx="418" cy="370" r="6" transform="rotate(0,418,370)"/><circle cx="418" cy="382" r="6" transform="rotate(0,418,382)"/><circle cx="418" cy="394" r="6" transform="rotate(0,418,394)"/><circle cx="418" cy="406" r="6" transform="rotate(0,418,406)"/><circle cx="418" cy="418" r="6" transform="rotate(0,418,418)"/><circle cx="418" cy="430" r="6" transform="rotate(0,418,430)"/><circle cx="418" cy="454" r="6" transform="rotate(0,418,454)"/><circle cx="418" cy="466" r="6" transform="rotate(0,418,466)"/><circle cx="430" cy="130" r="6" transform="rotate(0,430,130)"/><circle cx="430" cy="142" r="6" transform="rotate(0,430,142)"/><circle cx="430" cy="166" r="6" transform="rotate(0,430,166)"/><circle cx="430" cy="178" r="6" transform="rotate(0,430,178)"/><circle cx="430" cy="214" r="6" transform="rotate(0,430,214)"/><circle cx="430" cy="226" r="6" transform="rotate(0,430,226)"/><circle cx="430" cy="262" r="6" transform="rotate(0,430,262)"/><circle cx="430" cy="274" r="6" transform="rotate(0,430,274)"/><circle cx="430" cy="286" r="6" transform="rotate(0,430,286)"/><circle cx="430" cy="298" r="6" transform="rotate(0,430,298)"/><circle cx="430" cy="310" r="6" transform="rotate(0,430,310)"/><circle cx="430" cy="334" r="6" transform="rotate(0,430,334)"/><circle cx="430" cy="382" r="6" transform="rotate(0,430,382)"/><circle cx="430" cy="406" r="6" transform="rotate(0,430,406)"/><circle cx="430" cy="418" r="6" transform="rotate(0,430,418)"/><circle cx="430" cy="442" r="6" transform="rotate(0,430,442)"/><circle cx="430" cy="466" r="6" transform="rotate(0,430,466)"/><circle cx="442" cy="142" r="6" transform="rotate(0,442,142)"/><circle cx="442" cy="166" r="6" transform="rotate(0,442,166)"/><circle cx="442" cy="190" r="6" transform="rotate(0,442,190)"/><circle cx="442" cy="274" r="6" transform="rotate(0,442,274)"/><circle cx="442" cy="298" r="6" transform="rotate(0,442,298)"/><circle cx="442" cy="358" r="6" transform="rotate(0,442,358)"/><circle cx="442" cy="382" r="6" transform="rotate(0,442,382)"/><circle cx="442" cy="418" r="6" transform="rotate(0,442,418)"/><circle cx="442" cy="430" r="6" transform="rotate(0,442,430)"/><circle cx="442" cy="442" r="6" transform="rotate(0,442,442)"/><circle cx="442" cy="466" r="6" transform="rotate(0,442,466)"/><circle cx="454" cy="130" r="6" transform="rotate(0,454,130)"/><circle cx="454" cy="142" r="6" transform="rotate(0,454,142)"/><circle cx="454" cy="202" r="6" transform="rotate(0,454,202)"/><circle cx="454" cy="226" r="6" transform="rotate(0,454,226)"/><circle cx="454" cy="250" r="6" transform="rotate(0,454,250)"/><circle cx="454" cy="286" r="6" transform="rotate(0,454,286)"/><circle cx="454" cy="298" r="6" transform="rotate(0,454,298)"/><circle cx="454" cy="334" r="6" transform="rotate(0,454,334)"/><circle cx="454" cy="346" r="6" transform="rotate(0,454,346)"/><circle cx="454" cy="358" r="6" transform="rotate(0,454,358)"/><circle cx="454" cy="370" r="6" transform="rotate(0,454,370)"/><circle cx="466" cy="142" r="6" transform="rotate(0,466,142)"/><circle cx="466" cy="154" r="6" transform="rotate(0,466,154)"/><circle cx="466" cy="202" r="6" transform="rotate(0,466,202)"/><circle cx="466" cy="214" r="6" transform="rotate(0,466,214)"/><circle cx="466" cy="226" r="6" transform="rotate(0,466,226)"/><circle cx="466" cy="250" r="6" transform="rotate(0,466,250)"/><circle cx="466" cy="262" r="6" transform="rotate(0,466,262)"/><circle cx="466" cy="274" r="6" transform="rotate(0,466,274)"/><circle cx="466" cy="286" r="6" transform="rotate(0,466,286)"/><circle cx="466" cy="322" r="6" transform="rotate(0,466,322)"/><circle cx="466" cy="334" r="6" transform="rotate(0,466,334)"/><circle cx="466" cy="358" r="6" transform="rotate(0,466,358)"/><circle cx="466" cy="370" r="6" transform="rotate(0,466,370)"/><circle cx="466" cy="382" r="6" transform="rotate(0,466,382)"/><circle cx="466" cy="406" r="6" transform="rotate(0,466,406)"/><circle cx="466" cy="454" r="6" transform="rotate(0,466,454)"/><circle cx="466" cy="466" r="6" transform="rotate(0,466,466)"/></clipPath><clipPath id="clip-path-corners-square-color-0-0"><path clip-rule="evenodd" d="M 28 58v 24a 30 30, 0, 0, 0, 30 30h 24a 30 30, 0, 0, 0, 30 -30v -24a 30 30, 0, 0, 0, -30 -30h -24a 30 30, 0, 0, 0, -30 30M 58 40h 24a 18 18, 0, 0, 1, 18 18v 24a 18 18, 0, 0, 1, -18 18h -24a 18 18, 0, 0, 1, -18 -18v -24a 18 18, 0, 0, 1, 18 -18" transform="rotate(0,70,70)"/></clipPath><clipPath id="clip-path-corners-dot-color-0-0"><circle cx="70" cy="70" r="18" transform="rotate(0,70,70)"/></clipPath><clipPath id="clip-path-corners-square-color-1-0"><path clip-rule="evenodd" d="M 388 58v 24a 30 30, 0, 0, 0, 30 30h 24a 30 30, 0, 0, 0, 30 -30v -24a 30 30, 0, 0, 0, -30 -30h -24a 30 30, 0, 0, 0, -30 30M 418 40h 24a 18 18, 0, 0, 1, 18 18v 24a 18 18, 0, 0, 1, -18 18h -24a 18 18, 0, 0, 1, -18 -18v -24a 18 18, 0, 0, 1, 18 -18" transform="rotate(90,430,70)"/></clipPath><clipPath id="clip-path-corners-dot-color-1-0"><circle cx="430" cy="70" r="18" transform="rotate(90,430,70)"/></clipPath><clipPath id="clip-path-corners-square-color-0-1"><path clip-rule="evenodd" d="M 28 418v 24a 30 30, 0, 0, 0, 30 30h 24a 30 30, 0, 0, 0, 30 -30v -24a 30 30, 0, 0, 0, -30 -30h -24a 30 30, 0, 0, 0, -30 30M 58 400h 24a 18 18, 0, 0, 1, 18 18v 24a 18 18, 0, 0, 1, -18 18h -24a 18 18, 0, 0, 1, -18 -18v -24a 18 18, 0, 0, 1, 18 -18" transform="rotate(-90,70,430)"/></clipPath><clipPath id="clip-path-corners-dot-color-0-1"><circle cx="70" cy="430" r="18" transform="rotate(-90,70,430)"/></clipPath></defs><rect x="0" y="0" height="500" width="500" clip-path="url('#clip-path-background-color')" fill="#fff"/><rect x="0" y="0" height="500" width="500" clip-path="url('#clip-path-dot-color')" fill="#000000"/><rect x="28" y="28" height="84" width="84" clip-path="url('#clip-path-corners-square-color-0-0')" fill="#000000"/><rect x="52" y="52" height="36" width="36" clip-path="url('#clip-path-corners-dot-color-0-0')" fill="#000000"/><rect x="388" y="28" height="84" width="84" clip-path="url('#clip-path-corners-square-color-1-0')" fill="#000000"/><rect x="412" y="52" height="36" width="36" clip-path="url('#clip-path-corners-dot-color-1-0')" fill="#000000"/><rect x="28" y="388" height="84" width="84" clip-path="url('#clip-path-corners-square-color-0-1')" fill="#000000"/><rect x="52" y="412" height="36" width="36" clip-path="url('#clip-path-corners-dot-color-0-1')" fill="#000000"/></svg>